<?xml version="1.0" encoding="UTF-8"?>
<svg id="Layer_1" data-name="Layer 1" xmlns="http://www.w3.org/2000/svg" viewBox="0 0 48 60">
  <defs>
    <style>
      .cls-1a {
        fill: #b161d7;
      }
    </style>
  </defs>
  <path class="cls-1a" d="M10.991852,.121371c-.606267,.044703-1.109017,.486775-1.230902,1.082345-.41547,2.048405-1.560143,3.55469-2.801364,5.284391s-2.582433,3.740429-2.652807,6.494071c-.050193,1.964077,.678484,4.363645,2.037356,6.536516,.010802,10.762012,.473797,20.496823,1.20968,27.610412,.372327,3.599123,.801171,6.512272,1.315792,8.616316,.257311,1.052092,.520938,1.89841,.870121,2.589139,.174592,.345331,.379858,.661222,.679119,.95501s.774101,.594229,1.358237,.594229,1.058978-.300441,1.358237-.594229,.504528-.609679,.679119-.95501c.349181-.69073,.612811-1.537048,.870121-2.589139,.514619-2.104044,.943467-5.017193,1.315792-8.616316,.733931-7.094745,1.196519-16.797473,1.20968-27.525522,1.600824-2.075701,2.746748-4.564313,2.716474-7.279301-.051748-4.64096-3.223683-9.192711-8.149422-12.033131-.238639-.13447-.512356-.193652-.785231-.16978ZM29.879835,.121371c-2.108486,0-3.841264,1.732778-3.841264,3.841264V56.021313c0,2.108458,1.732778,3.862487,3.841264,3.862487h9.974553c2.108484,0,3.841264-1.754029,3.841264-3.862487V3.962635c0-2.108486-1.73278-3.841264-3.841264-3.841264h-9.974553Zm0,2.716474h9.974553c.650549,0,1.12479,.474242,1.12479,1.12479V56.021313c0,.650528-.474241,1.146012-1.12479,1.146012h-9.974553c-.650546,0-1.12479-.495484-1.12479-1.146012v-4.286936h3.395593c.750133,.010596,1.366828-.588918,1.377423-1.339051s-.588915-1.366828-1.339048-1.377423c-.012793-.000181-.025585-.000181-.038375,0h-3.395593v-4.074711h2.037356c.750133,.010596,1.366828-.588918,1.377423-1.339051,.010598-.750133-.588915-1.366828-1.339048-1.377423-.012793-.000181-.025585-.000181-.038375,0h-2.037356v-4.074711h3.395593c.750133,.010596,1.366828-.588915,1.377423-1.339051,.010596-.750133-.588915-1.366828-1.339048-1.377423-.012793-.000181-.025585-.000181-.038375,0h-3.395593v-4.074711h2.037356c.750133,.010596,1.366828-.588915,1.377423-1.339051,.010598-.750133-.588915-1.366828-1.339048-1.377423-.012793-.000181-.025585-.000181-.038375,0h-2.037356v-4.074711h3.395593c.750133,.010596,1.366828-.588915,1.377423-1.339051,.010596-.750133-.588915-1.366828-1.339048-1.377423-.012793-.000181-.025585-.000181-.038375,0h-3.395593v-4.074711h2.037356c.750133,.010596,1.366828-.588917,1.377423-1.339049,.010598-.750134-.588915-1.366828-1.339048-1.377425-.012793-.00018-.025585-.00018-.038375,0h-2.037356v-4.074711h3.395593c.750133,.010597,1.366828-.588917,1.377423-1.339049,.010596-.750134-.588915-1.366828-1.339048-1.377425-.012793-.00018-.025585-.00018-.038375,0h-3.395593V3.962635c0-.650548,.474244-1.12479,1.12479-1.12479Zm-18.039085,.848898c3.339029,2.433519,5.336219,5.693586,5.369281,8.658761,.020632,1.850144-.779508,3.745013-2.037356,5.432948h-6.706295c-.961907-1.690884-1.470784-3.650354-1.443127-4.732607,.049188-1.924676,.941649-3.291267,2.143468-4.966054,.893738-1.245462,1.959657-2.638477,2.674029-4.393048Zm-2.758919,16.808183h5.390503c-.004272,1.140717-.02865,2.280318-.042445,3.395593h-5.305613c-.013796-1.115275-.038173-2.254875-.042445-3.395593Zm.08489,6.112067h5.220724c-.153412,7.829238-.526061,14.84764-1.082345,20.224998-.365051,3.528834-.791764,6.394445-1.252125,8.276757-.095602,.390833-.18057,.52608-.275892,.827676-.095324-.301596-.18029-.436843-.275892-.827676-.460363-1.882311-.887074-4.747923-1.252125-8.276757-.556284-5.377358-.928932-12.39576-1.082345-20.224998Z"/>
</svg>