<?xml version="1.0" encoding="utf-8"?>
<!-- Generator: Adobe Illustrator 26.5.0, SVG Export Plug-In . SVG Version: 6.00 Build 0)  -->
<svg version="1.1" id="Layer_1" xmlns:serif="http://www.serif.com/"
	 xmlns="http://www.w3.org/2000/svg" xmlns:xlink="http://www.w3.org/1999/xlink" x="0px" y="0px" viewBox="0 0 48 60"
	 style="enable-background:new 0 0 48 60;" xml:space="preserve">
<style type="text/css">
	.st0{fill-rule:evenodd;clip-rule:evenodd;fill:#FF8303;}
	.st1{fill:#2F806B;}
	.st2{fill:#CC5B9F;}
	.st3{fill:#B161D7;}
	.st4{fill:#FF8303;}
	.st5{fill:#6F2EFF;}
	.st6{fill-rule:evenodd;clip-rule:evenodd;fill:#2F806B;}
</style>
<g transform="matrix(1,0,0,1,-160,-88)">
	<g transform="matrix(0.911949,0,0,0.911949,84.3022,87.8725)">
		<path class="st0" d="M113.8,9.8c3.7,0,6.7,3,6.7,6.7c0,0.4,0.3,0.7,0.7,0.7c0.4,0,0.7-0.3,0.7-0.7c0-4.4-3.6-8.1-8.1-8.1
			c-0.4,0-0.7,0.3-0.7,0.7S113.5,9.8,113.8,9.8z"/>
	</g>
	<path class="st0" d="M198,122.4h1c4.7,0,8.5-3.8,8.5-8.5c0-4.7-3.8-8.5-8.5-8.5c-0.4,0-0.9,0-1.3,0.1c0.2-0.8,0.3-1.7,0.3-2.6
		c0-5.6-4.5-10.1-10.1-10.1c-4.8,0-8.8,3.4-9.8,7.9c-1.2-1-2.7-1.5-4.4-1.5c-3.8,0-6.9,3.1-6.9,6.9c0,0.9,0.2,1.8,0.5,2.5
		c-3.8,0.1-6.8,3.1-6.8,6.9c0,3.8,3.1,6.9,6.9,6.9h2.5v9.4c0,0.3,0.3,0.6,0.6,0.6h2.4v1.8h-0.7c-0.3,0-0.6,0.3-0.6,0.6v0.7h-9.8
		c-0.3,0-0.6,0.3-0.6,0.6s0.3,0.6,0.6,0.6h9.8v0.7c0,0.3,0.3,0.6,0.6,0.6h2.6c0.3,0,0.6-0.3,0.6-0.6v-2.6c0-0.3-0.3-0.6-0.6-0.6
		h-0.7v-1.8h5.9v6.1l-2.2,2.2h-12.1V140c0-0.3-0.3-0.6-0.6-0.6h-2.6c-0.3,0-0.6,0.3-0.6,0.6v2.6c0,0.3,0.3,0.6,0.6,0.6h2.6
		c0.3,0,0.6-0.3,0.6-0.6v-0.7h12.4c0.2,0,0.3-0.1,0.4-0.2l2.6-2.6c0.1-0.1,0.2-0.3,0.2-0.4v-6.3h5.3v6.3c0,0.2,0.1,0.3,0.2,0.4
		l2.6,2.6c0.1,0.1,0.3,0.2,0.4,0.2h12.4v0.7c0,0.3,0.3,0.6,0.6,0.6h2.6c0.3,0,0.6-0.3,0.6-0.6V140c0-0.3-0.3-0.6-0.6-0.6h-2.6
		c-0.3,0-0.6,0.3-0.6,0.6v0.7h-12.1l-2.2-2.2v-6.1h5.9v1.8h-0.7c-0.3,0-0.6,0.3-0.6,0.6v2.6c0,0.3,0.3,0.6,0.6,0.6h2.6
		c0.3,0,0.6-0.3,0.6-0.6v-0.7h9.8c0.3,0,0.6-0.3,0.6-0.6s-0.3-0.6-0.6-0.6h-9.8v-0.7c0-0.3-0.3-0.6-0.6-0.6H195v-1.8h2.4
		c0.3,0,0.6-0.3,0.6-0.6V122.4z M164.5,140.6v1.4h-1.4v-1.4H164.5z M203.5,141.3v0.7h1.4v-1.4h-1.4V141.3z M174.2,135.4L174.2,135.4
		H173l0,0h-0.1v0.7v0.7h1.4L174.2,135.4L174.2,135.4z M193.7,135.4h1.4v0.7v0.7h-1.4V135.4z M196.8,125.7v5.5h-25.6c0,0,0-5.5,0-5.5
		H196.8z M171.2,124.4h25.6V119h-25.6V124.4z M198,121.2h1c4,0,7.3-3.3,7.3-7.3c0-4-3.3-7.3-7.3-7.3c-0.7,0-1.4,0.1-2.1,0.3
		c-0.2,0.1-0.5,0-0.6-0.2c-0.2-0.2-0.2-0.4-0.1-0.6c0.4-1,0.6-2.1,0.6-3.3c0-4.9-4-8.8-8.8-8.8c-4.6,0-8.4,3.5-8.8,7.9
		c0,0.2-0.2,0.5-0.4,0.5c-0.2,0.1-0.5,0-0.7-0.2c-1-1.2-2.6-2-4.3-2c-3.1,0-5.7,2.6-5.7,5.7c0,1.1,0.3,2.1,0.8,2.9
		c0.1,0.2,0.1,0.5,0,0.7c-0.1,0.2-0.4,0.3-0.6,0.3c-0.3,0-0.5-0.1-0.8-0.1c-3.1,0-5.7,2.6-5.7,5.7s2.6,5.7,5.7,5.7h2.5v-9.5
		c0-0.3,0.3-0.6,0.6-0.6h26.9c0.3,0,0.6,0.3,0.6,0.6V121.2z M196.8,117.7h-25.6v-5.5h25.6V117.7z"/>
	<g transform="matrix(1.36526,0,0,1.36526,132.101,89.7471)">
		<rect x="44.1" y="17.9" class="st0" width="1.2" height="1.2"/>
	</g>
	<g transform="matrix(1.36526,0,0,1.36526,132.101,95.2081)">
		<rect x="44.1" y="18.8" class="st0" width="1.2" height="1.2"/>
	</g>
	<g transform="matrix(1.36526,0,0,1.36526,132.101,100.669)">
		<rect x="44.1" y="19.7" class="st0" width="1.2" height="1.2"/>
	</g>
	<g transform="matrix(1.36526,0,0,1.36526,129.371,89.7471)">
		<rect x="43.7" y="17.9" class="st0" width="1.2" height="1.2"/>
	</g>
	<g transform="matrix(1.36526,0,0,1.36526,129.371,95.2081)">
		<rect x="43.7" y="18.8" class="st0" width="1.2" height="1.2"/>
	</g>
	<g transform="matrix(1.36526,0,0,1.36526,129.371,100.669)">
		<rect x="43.7" y="19.7" class="st0" width="1.2" height="1.2"/>
	</g>
	<g transform="matrix(1.36526,0,0,1.36526,126.64,89.7471)">
		<rect x="43.2" y="17.9" class="st0" width="1.2" height="1.2"/>
	</g>
	<g transform="matrix(1.36526,0,0,1.36526,126.64,95.2081)">
		<rect x="43.2" y="18.8" class="st0" width="1.2" height="1.2"/>
	</g>
	<g transform="matrix(1.36526,0,0,1.36526,126.64,100.669)">
		<rect x="43.2" y="19.7" class="st0" width="1.2" height="1.2"/>
	</g>
	<g transform="matrix(1.07258,0,0,1.07258,141.097,70.5484)">
		<path class="st0" d="M30.2,42h8.6c0.3,0,0.6-0.3,0.6-0.6c0-0.3-0.3-0.6-0.6-0.6h-8.6c-0.3,0-0.6,0.3-0.6,0.6
			C29.6,41.7,29.8,42,30.2,42z"/>
	</g>
	<g transform="matrix(1.07258,0,0,1.07258,141.097,76.0094)">
		<path class="st0" d="M30.2,43.2h8.6c0.3,0,0.6-0.3,0.6-0.6c0-0.3-0.3-0.6-0.6-0.6h-8.6c-0.3,0-0.6,0.3-0.6,0.6
			C29.6,42.9,29.8,43.2,30.2,43.2z"/>
	</g>
	<g transform="matrix(1.07258,0,0,1.07258,141.097,81.4705)">
		<path class="st0" d="M30.2,44.3h8.6c0.3,0,0.6-0.3,0.6-0.6c0-0.3-0.3-0.6-0.6-0.6h-8.6c-0.3,0-0.6,0.3-0.6,0.6
			C29.6,44.1,29.8,44.3,30.2,44.3z"/>
	</g>
</g>
<g>
	<path class="st1" d="M145.4,21.3H130c-0.1,0-0.1,0-0.1,0.1v0.5h-1.7c-0.1,0-0.3,0.1-0.4,0.2c-0.1,0.1-0.2,0.2-0.2,0.4
		c0,0.3,0.2,0.5,0.5,0.5h1.7v2.6h-1.3c-0.1,0-0.3,0.1-0.4,0.2c-0.1,0.1-0.2,0.2-0.2,0.4c0,0.3,0.2,0.5,0.5,0.5h1.3v0.7h-0.5
		c-0.1,0-0.3,0.1-0.4,0.2c-0.1,0.1-0.2,0.2-0.2,0.4c0,0.3,0.2,0.5,0.5,0.5h0.5v0.7h-5.7c-0.3,0-0.5,0.2-0.5,0.5s0.2,0.5,0.5,0.5h5.7
		V31h-7.6c-0.3,0-0.5,0.2-0.5,0.5c0,0.3,0.2,0.5,0.5,0.5h7.7v0h5.1v3.1c0,1.2-1,2.1-2.1,2.1h-13.3v-3.4h1.8c0.3,0,0.5-0.2,0.5-0.5
		c0-0.1-0.1-0.3-0.2-0.4c-0.1-0.1-0.2-0.2-0.4-0.2h-1.8V32h0.6c0.3,0,0.5-0.2,0.5-0.5c0-0.1-0.1-0.3-0.2-0.4
		c-0.1-0.1-0.2-0.2-0.4-0.2h-0.6c0-0.1,0-0.1-0.1-0.1h-8.6c-0.1,0-0.1,0-0.1,0.1v4h-4c-0.1,0-0.1,0-0.1,0.1v5.3h-1
		c-0.1,0-0.1,0-0.1,0.1c0,0.1,0,0.1,0.1,0.1h1v4.3c0,0.1,0,0.1,0.1,0.1h9.8c0.1,0,0.1,0,0.1-0.1v-5.2h2.9c0.1,0,0.1,0,0.1-0.1v-0.5
		c0,0,0.1,0,0.1,0H137c0.1,0,0.1,0,0.1-0.1V32h1.1v8.1c0,0.5-0.3,1-0.7,1.2v-0.1c0-0.1-0.1-0.1-0.1-0.1h-20v2.6h1.8l-3.6,14h1.3
		l3.7-14h5.2v14h1.4v-14h5.2l3.7,14h1.3l-3.6-14h3.6c0.1,0,0.1-0.1,0.1-0.1v-1.1h1.7c0.1,0,0.1,0,0.1-0.1V32h6.1
		c0.1,0,0.1,0,0.1-0.1V21.4C145.5,21.4,145.5,21.3,145.4,21.3z M116.4,40.6l-1.9-2.6l-2,2l3.9,4v0.3l-0.2,0.2l-0.2-0.2l-0.1,0.1
		l-0.5-0.5l0.1-0.1l-0.5-0.5l-0.1,0.1l-0.5-0.5l0.1-0.1l-0.5-0.5l-0.1,0.1l-0.5-0.5l0.1-0.1l-0.5-0.5l-0.1,0.1l-0.5-0.5l0.1-0.1
		l-0.5-0.5l-0.1,0.1l-0.2-0.2l-1.1,0.3l-0.1-0.1l-0.5,0.5l0.1,0.1l-0.5,0.5l-0.1-0.1l-0.5,0.5l0.1,0.1l-0.5,0.5l-0.1-0.1l-0.5,0.5
		l0.1,0.1l-0.5,0.5l-0.1-0.1l-0.5,0.5l0.1,0.1l-0.5,0.5l-0.1-0.1l-0.2,0.2l-0.1-0.1v-0.5l3.6-3.6l-0.9-1.2c0,0-1.5,1.4-2.7,2.6v-6.4
		h9.5L116.4,40.6L116.4,40.6z M119.4,39.1l-0.2,0.2l-2.6-2.6V36l2.8,2.8V39.1z M119.4,35.8l-1.7-2.2l-1.5,1.5h-0.6l0.1-0.1l-0.2-0.2
		l-0.2,0.2l0,0H115l0,0l-0.2-0.2l-0.2,0.2l0.1,0.1h-0.9l-0.4-0.6c0,0-0.2,0.2-0.6,0.6H111v-3.9h8.4
		C119.4,31.1,119.4,35.8,119.4,35.8z M134,21.8c0.3,0,0.5,0.2,0.5,0.5c0,0.3-0.2,0.5-0.5,0.5c-0.3,0-0.5-0.2-0.5-0.5
		C133.5,22,133.7,21.8,134,21.8z M132.6,21.8c0.3,0,0.5,0.2,0.5,0.5c0,0.3-0.2,0.5-0.5,0.5c-0.3,0-0.5-0.2-0.5-0.5
		C132.1,22,132.3,21.8,132.6,21.8z M131.1,21.8c0.3,0,0.5,0.2,0.5,0.5c0,0.3-0.2,0.5-0.5,0.5s-0.5-0.2-0.5-0.5
		C130.7,22,130.9,21.8,131.1,21.8z M144.1,27.4c-0.2,0.5-0.4,1.3-0.8,1.7c-1.1,1.2-3.1,1.5-4.7,1.6c-2.8,0.1-5.7-0.6-8.5-0.1v-7.4
		h14c0,0.2,0.2,0.7,0.2,0.8c0.1,0.4,0.1,0.8,0.1,1.1C144.5,25.9,144.4,26.7,144.1,27.4z"/>
	<path class="st1" d="M122.3,21.2c0.3,0,0.5-0.2,0.5-0.5c0-0.3-0.2-0.5-0.5-0.5h-3.9c-0.1,0-0.3,0.1-0.4,0.2
		c-0.1,0.1-0.2,0.2-0.2,0.4c0,0.3,0.2,0.5,0.5,0.5L122.3,21.2L122.3,21.2z"/>
	<path class="st1" d="M118.3,23h7.5c0.3,0,0.5-0.2,0.5-0.5c0-0.3-0.2-0.5-0.5-0.5h-7.5c-0.1,0-0.3,0.1-0.4,0.2
		c-0.1,0.1-0.2,0.2-0.2,0.4C117.8,22.8,118,23,118.3,23z"/>
	<path class="st1" d="M118.3,24.8h6.2c0.3,0,0.5-0.2,0.5-0.5c0-0.3-0.2-0.5-0.5-0.5h-6.2c-0.1,0-0.3,0.1-0.4,0.2
		c-0.1,0.1-0.2,0.2-0.2,0.4C117.8,24.6,118,24.8,118.3,24.8z"/>
	<path class="st1" d="M129.1,24.3c0-0.3-0.2-0.5-0.5-0.5h-1.7c-0.1,0-0.3,0.1-0.4,0.2c-0.1,0.1-0.2,0.2-0.2,0.4
		c0,0.3,0.2,0.5,0.5,0.5h1.7C128.8,24.8,129.1,24.6,129.1,24.3z"/>
	<path class="st1" d="M118.3,26.7h8.1c0.3,0,0.5-0.2,0.5-0.5c0-0.3-0.2-0.5-0.5-0.5h-8.1c-0.1,0-0.3,0.1-0.4,0.2
		c-0.1,0.1-0.2,0.2-0.2,0.4C117.8,26.4,118,26.7,118.3,26.7z"/>
	<path class="st1" d="M127.7,27.9c0-0.3-0.2-0.5-0.5-0.5h-8.8c-0.1,0-0.3,0.1-0.4,0.2c-0.1,0.1-0.2,0.2-0.2,0.4
		c0,0.3,0.2,0.5,0.5,0.5h8.8C127.4,28.5,127.7,28.2,127.7,27.9z"/>
	<path class="st1" d="M118.5,29.1c-0.3,0-0.5,0.2-0.5,0.5c0,0.3,0.2,0.5,0.5,0.5h1.7c0.3,0,0.5-0.2,0.5-0.5c0-0.1-0.1-0.3-0.2-0.4
		c-0.1-0.1-0.2-0.2-0.4-0.2L118.5,29.1L118.5,29.1z"/>
	<path class="st1" d="M131.7,33.9c0.3,0,0.5-0.2,0.5-0.5c0-0.1-0.1-0.3-0.2-0.4c-0.1-0.1-0.2-0.2-0.4-0.2h-8.1
		c-0.3,0-0.5,0.2-0.5,0.5c0,0.3,0.2,0.5,0.5,0.5L131.7,33.9L131.7,33.9z"/>
	<path class="st1" d="M122.4,35.1c0,0.3,0.2,0.5,0.5,0.5h8.8c0.3,0,0.5-0.2,0.5-0.5c0-0.1-0.1-0.3-0.2-0.4c-0.1-0.1-0.2-0.2-0.4-0.2
		h-8.8C122.6,34.6,122.4,34.8,122.4,35.1z"/>
	<path class="st1" d="M135.2,29.3c0,0,0.1,0.1,0.2,0.1c0.1,0,0.1,0,0.2-0.1c0.1-0.1,0.1-0.2,0-0.3l-1.4-1.3l1.3-1.4
		c0.1-0.1,0.1-0.2,0-0.3c-0.1-0.1-0.2-0.1-0.3,0l-1.5,1.5c-0.1,0.1-0.1,0.2,0,0.3L135.2,29.3z"/>
	<path class="st1" d="M138.8,30.1C138.8,30.1,138.8,30.1,138.8,30.1c0.2,0,0.2,0,0.3-0.1l1.1-3.4l1.1,1l-1.3,1.4
		c-0.1,0.1-0.1,0.2,0,0.3c0,0,0.1,0.1,0.2,0.1c0.1,0,0.1,0,0.2-0.1l1.5-1.5c0,0,0.1-0.1,0.1-0.2s0-0.1-0.1-0.2l-1.4-1.3l0.2-0.7
		c0-0.1,0-0.2-0.1-0.3c-0.1,0-0.2,0-0.3,0.1l-1.5,4.6C138.6,29.9,138.6,30.1,138.8,30.1z"/>
	<path class="st1" d="M136.6,29.3h1.4c0.1,0,0.2-0.1,0.2-0.2s-0.1-0.2-0.2-0.2h-1.4c-0.1,0-0.2,0.1-0.2,0.2S136.5,29.3,136.6,29.3z"
		/>
	<path class="st1" d="M113.9,32.9c0.3,0,0.6-0.3,0.6-0.6c0-0.3-0.3-0.6-0.6-0.6c-0.3,0-0.6,0.3-0.6,0.6
		C113.2,32.6,113.5,32.9,113.9,32.9z"/>
	<rect x="112" y="31.9" transform="matrix(0.7097 -0.7045 0.7045 0.7097 9.8594 88.3431)" class="st1" width="0.2" height="0.7"/>
	<rect x="113" y="32.8" transform="matrix(0.7097 -0.7045 0.7045 0.7097 9.4636 89.2812)" class="st1" width="0.2" height="0.7"/>
	<rect x="113.9" y="33.8" transform="matrix(0.7098 -0.7044 0.7044 0.7098 9.0605 90.2052)" class="st1" width="0.2" height="0.7"/>
	
		<rect x="111.2" y="31.2" transform="matrix(0.7097 -0.7045 0.7045 0.7097 10.2032 87.5249)" class="st1" width="0.2" height="0.3"/>
	<rect x="116.1" y="34" transform="matrix(0.71 -0.7042 0.7042 0.71 9.7351 91.8628)" class="st1" width="0.7" height="0.2"/>
	<rect x="117" y="33.1" transform="matrix(0.71 -0.7042 0.7042 0.71 10.6723 92.2585)" class="st1" width="0.7" height="0.2"/>
	<rect x="118" y="32.1" transform="matrix(0.71 -0.7042 0.7042 0.71 11.6102 92.6525)" class="st1" width="0.7" height="0.2"/>
	<rect x="119" y="31.3" transform="matrix(0.71 -0.7042 0.7042 0.71 12.427 92.9983)" class="st1" width="0.3" height="0.2"/>
	<path class="st1" d="M110.1,37.3c0.4,0,0.7-0.3,0.7-0.7s-0.3-0.7-0.7-0.7c-0.4,0-0.7,0.3-0.7,0.7C109.4,36.9,109.7,37.3,110.1,37.3
		z"/>
	<rect x="109.7" y="37.9" transform="matrix(0.7097 -0.7045 0.7045 0.7097 4.9697 88.4439)" class="st1" width="0.2" height="0.6"/>
	<rect x="107.9" y="36" transform="matrix(0.7097 -0.7045 0.7045 0.7097 5.7295 86.6354)" class="st1" width="0.2" height="0.6"/>
	<rect x="110.6" y="38.8" transform="matrix(0.7098 -0.7044 0.7044 0.7098 4.5803 89.3326)" class="st1" width="0.2" height="0.6"/>
	<rect x="108.8" y="37" transform="matrix(0.7097 -0.7045 0.7045 0.7097 5.3496 87.5397)" class="st1" width="0.2" height="0.6"/>
	<rect x="107.1" y="35.4" transform="matrix(0.7095 -0.7047 0.7047 0.7095 6.0768 85.8731)" class="st1" width="0.2" height="0.3"/>
	<rect x="115" y="36.3" transform="matrix(0.71 -0.7042 0.7042 0.71 7.8007 91.7281)" class="st1" width="0.6" height="0.2"/>
	<rect x="113.1" y="38.1" transform="matrix(0.71 -0.7042 0.7042 0.71 5.9944 90.9667)" class="st1" width="0.6" height="0.2"/>
	<rect x="112.2" y="39" transform="matrix(0.71 -0.7042 0.7042 0.71 5.0909 90.5869)" class="st1" width="0.6" height="0.2"/>
	<rect x="114" y="37.2" transform="matrix(0.71 -0.7042 0.7042 0.71 6.8972 91.3482)" class="st1" width="0.6" height="0.2"/>
	<polygon class="st1" points="111.5,40.3 111.6,40.2 111.8,40.3 111.9,40.2 111.8,40 111.9,39.9 111.8,39.7 111.6,39.9 111.5,39.7 
		111.3,39.9 111.5,40 111.3,40.2 	"/>
	<rect x="115.9" y="35.5" transform="matrix(0.71 -0.7042 0.7042 0.71 8.5923 92.0616)" class="st1" width="0.3" height="0.2"/>
	<path class="st1" d="M139.3,13.6V13c0-0.1,0-0.1-0.1-0.1h-0.7l-0.3-0.3l2.4-2.4c0.3-0.3,0.7-0.5,1-0.5c0.2,0,0.4-0.1,0.6-0.2
		c1.9-0.9,1-3.5,0.7-3.1c-0.5,0.7-1,1.5-1,1.5c-0.1,0.4-1.7-0.2-1.6-0.6c0,0,0.2-0.9,0.2-1.8c0-0.5-1.7,0.5-1.6,2
		c0,0.5-0.2,1-0.5,1.4l-2.8,2.8l-4.4-4.4l0,0l-0.3-1l-1.4-0.7L129,6.3l0.7,1.4l1,0.3l0,0l4.4,4.4l-0.4,0.4h-20.9
		c-0.1,0-0.1,0-0.1,0.1v3.6c0,0,0,0,0,0c-0.2-0.2-0.3-0.4-0.5-0.6c-0.1-0.2-0.2-0.3-0.3-0.4c-0.1-0.1-0.2-0.1-0.3-0.1
		c-0.1,0-0.1,0-0.2-0.1c-0.5-0.3-0.9-0.8-1-1.4c0-0.1,0-0.3,0.1-0.4c0-0.1,0.1-0.2,0.2-0.2c0.1-0.1,0.3-0.1,0.4-0.2
		c0.2-0.1,0.5-0.2,0.6-0.3c0,0,0-0.1,0-0.1c0-0.1,0.1-0.2,0.2-0.3c0.1-0.1,0.3-0.1,0.4-0.2l0.1,0c0.2,0,0.3-0.1,0.5-0.2
		c0.2-0.1,0.5-0.3,0.8-0.3c0,0,0.1,0,0.1,0c0.2,0,0.3,0.1,0.4,0.1c0.1,0,0.1,0.1,0.2,0.1c0,0,0.1,0,0.1,0c0,0,0.1,0,0.1,0
		c0,0,0-0.1,0-0.1c0,0,0-0.1,0-0.1c0-0.1,0.1-0.1,0.2-0.2c0-0.1,0-0.3,0.1-0.4c0.1-0.1,0.2-0.2,0.4-0.2c0.1,0,0.1,0,0.2,0
		c0,0-0.1-0.1-0.1-0.1c-0.1,0-0.2-0.1-0.3-0.1c-0.2,0-0.4-0.1-0.5-0.2c-0.2-0.1-0.3-0.2-0.4-0.4c0-0.1-0.1-0.1-0.1-0.1
		c-0.2-0.2-0.4-0.3-0.7-0.4c-0.1-0.1-0.2-0.1-0.3-0.2c-0.1-0.1-0.3-0.2-0.3-0.3c-0.1-0.2-0.1-0.4,0-0.6c-0.1,0-0.2,0-0.2,0
		c-0.1,0-0.2,0-0.2-0.1c-0.1-0.2,0-0.6,0.2-0.7c0.2-0.1,0.4-0.1,0.6-0.1c0.1,0,0.2,0,0.3,0c0.2,0,0.5,0,0.7,0
		c1.2,0.2,2.3,1.2,2.5,2.4c0,0.1,0.1,0.3,0,0.5c0,0.1-0.1,0.2-0.1,0.3c0,0.1-0.1,0.1-0.1,0.2c0,0,0,0.1,0,0.1c0,0.1,0,0.2,0,0.3
		c-0.1,0.2-0.3,0.3-0.4,0.4c-0.2,0.1-0.4,0.2-0.5,0.3h3.2c-0.4-3-2.9-5.4-6.1-5.4c-3.4,0-6.1,2.7-6.1,6.1c0,3.3,2.7,6.1,6,6.1v1.2
		c-4-0.1-7.2-3.3-7.2-7.3c0-4,3.3-7.3,7.3-7.3c3.8,0,6.9,2.9,7.3,6.6h3.6c-0.2-1.1-0.2-1.2-0.4-2.5l-1.8-0.2
		c-0.5-0.9-0.7-1.2-1.2-2.1l0.7-1.6c-1.2-1-1.1-0.9-2.3-1.9l-1.5,0.9c-0.9-0.3-1.4-0.5-2.3-0.8l-0.5-1.7c-1.5,0-1.4,0-3,0l-0.5,1.7
		c-1,0.3-1.3,0.5-2.3,0.8L108,3.8c-1.2,1-1.1,0.9-2.3,1.9l0.7,1.6c-0.1,0.2-0.2,0.4-0.3,0.6H106c-0.1,0-0.1,0-0.1,0.1
		c0,0,0,0.1,0.1,0.1c-0.2,0.4-0.4,0.8-0.8,1.3l-1.8,0.2c-0.3,1.5-0.3,1.4-0.5,2.9l1.6,0.8c0.2,1,0.3,1.4,0.4,2.4l-1.2,1.3
		c0.8,1.3,0.7,1.3,1.5,2.6l1.7-0.4c0.8,0.7,1.1,0.9,1.9,1.6l-0.1,1.8c1.4,0.5,1.4,0.5,2.8,1l1.1-1.4h1.1v7.9c0,0.1,0,0.1,0.1,0.1
		c0.1,0,0.1,0,0.1-0.1V13.1h24.3v7.5l1.1,0v-2.3l1.3,1.3c0.6,0.6,1.7,0.6,2.3,0v0c0.6-0.6,0.6-1.7,0-2.3L139.3,13.6z M110.6,8.9
		c-0.4,0.7-0.7,1.4-0.7,2.1c0,0.3,0,0.5,0,0.8c0,0.3-0.1,0.5-0.3,0.7c-0.1,0.1-0.3,0.2-0.4,0.3c-0.1,0.1-0.1,0.2-0.2,0.3
		c-0.1,0.1-0.3,0.1-0.5,0c-0.2-0.1-0.3-0.2-0.5-0.2c0,0-0.1,0-0.1,0c-0.1,0-0.1-0.1-0.1-0.1c-0.1-0.3,0-0.6,0-0.8c0,0,0,0,0-0.1
		c0.3-1.6,1.2-2.9,2.5-3.8c0.1,0,0.2,0,0.3,0.1C111.1,8.3,110.7,8.7,110.6,8.9z M139.3,14c0.4,0.3,0.7,0.7,1.1,1
		c0.6,0.6,1.1,1.2,1.7,1.8c0.2,0.2,0.2,0.5,0,0.7c-0.2,0.2-0.5,0.2-0.7,0c-0.6-0.5-1.2-1.1-1.8-1.7c-0.1-0.1-0.2-0.2-0.2-0.2V14z
		 M140.9,18.6c-0.2,0.2-0.5,0.2-0.7,0c-0.3-0.3-0.6-0.5-0.9-0.8v-1.7c0.6,0.6,1.1,1.2,1.6,1.8C141.1,18.1,141.1,18.4,140.9,18.6z
		 M142.1,19.7c-0.5,0.1-0.9,0-0.9-0.2c0-0.2,0.3-0.4,0.8-0.5s0.9,0,0.9,0.2C142.9,19.3,142.6,19.6,142.1,19.7z"/>
	<path class="st1" d="M137.1,20.5v-2.4l0,0v-3c0-0.1,0-0.1-0.1-0.1h-21c-0.1,0-0.1,0-0.1,0.1v15c0,0.1,0,0.1,0.1,0.1
		c0.1,0,0.1,0,0.1-0.1V18.4H135v2.1L137.1,20.5L137.1,20.5z M117.8,17.6c-0.5,0-0.9-0.4-0.9-0.9c0-0.5,0.4-0.8,0.9-0.8
		c0.5,0,0.9,0.4,0.9,0.8C118.6,17.3,118.3,17.6,117.8,17.6z M120.4,17.6c-0.5,0-0.9-0.4-0.9-0.9c0-0.5,0.4-0.8,0.9-0.8
		c0.5,0,0.9,0.4,0.9,0.8C121.2,17.3,120.8,17.6,120.4,17.6z M123,17.6c-0.5,0-0.9-0.4-0.9-0.9c0-0.5,0.4-0.8,0.9-0.8
		c0.5,0,0.9,0.4,0.9,0.8C123.8,17.3,123.4,17.6,123,17.6z"/>
	<path class="st1" d="M105.2,40.4h-0.8c0,0-0.1,0-0.1,0.1c0,0.1,0,0.1,0.1,0.1h0.8c0,0,0.1,0,0.1-0.1
		C105.3,40.4,105.2,40.4,105.2,40.4z"/>
	<path class="st1" d="M103.3,40.4h-1v-1c0-0.1,0-0.1-0.1-0.1s-0.1,0-0.1,0.1v1.1c0,0.1,0,0.1,0.1,0.1h1.1c0.1,0,0.1,0,0.1-0.1
		C103.4,40.4,103.4,40.4,103.3,40.4z"/>
	<path class="st1" d="M102.2,32.5c0.1,0,0.1,0,0.1-0.1v-2.3c0-0.1,0-0.1-0.1-0.1s-0.1,0-0.1,0.1v2.3
		C102.1,32.5,102.1,32.5,102.2,32.5z"/>
	<path class="st1" d="M102.2,27.9c0.1,0,0.1,0,0.1-0.1v-2.3c0-0.1,0-0.1-0.1-0.1s-0.1,0-0.1,0.1v2.3
		C102.1,27.8,102.1,27.9,102.2,27.9z"/>
	<path class="st1" d="M102.2,18.5c0.1,0,0.1,0,0.1-0.1v-2.3c0-0.1,0-0.1-0.1-0.1s-0.1,0-0.1,0.1v2.3
		C102.1,18.5,102.1,18.5,102.2,18.5z"/>
	<path class="st1" d="M102.2,23.2c0.1,0,0.1,0,0.1-0.1v-2.3c0-0.1,0-0.1-0.1-0.1s-0.1,0-0.1,0.1v2.3
		C102.1,23.1,102.1,23.2,102.2,23.2z"/>
	<path class="st1" d="M102.2,13.9c0.1,0,0.1,0,0.1-0.1v-2.3c0-0.1,0-0.1-0.1-0.1s-0.1,0-0.1,0.1v2.3
		C102.1,13.8,102.1,13.9,102.2,13.9z"/>
	<path class="st1" d="M102.2,37.2c0.1,0,0.1,0,0.1-0.1v-2.3c0-0.1,0-0.1-0.1-0.1s-0.1,0-0.1,0.1v2.3
		C102.1,37.1,102.1,37.2,102.2,37.2z"/>
	<path class="st1" d="M103.3,7.9h-1.1c-0.1,0-0.1,0-0.1,0.1v1.1c0,0.1,0,0.1,0.1,0.1s0.1,0,0.1-0.1v-1h1c0.1,0,0.1,0,0.1-0.1
		C103.4,8,103.4,7.9,103.3,7.9z"/>
	<path class="st1" d="M104.5,8.1h0.9c0,0,0.1,0,0.1-0.1c0-0.1,0-0.1-0.1-0.1h-0.9c0,0-0.1,0-0.1,0.1C104.4,8.1,104.5,8.1,104.5,8.1z
		"/>
	<path class="st1" d="M147.1,34.1c0-0.5-0.1-0.9-0.1-1.4c0-0.1,0-0.1-0.1-0.1l0,0c-0.1,0-0.1,0-0.1,0.1c0,0.5,0,0.9,0.1,1.4
		c0.1,1.3,0.2,2.7-0.5,3.7c-0.3,0.5-0.7,0.9-1.3,1.2c-0.3,0.2-0.6,0.3-0.8,0.4c0-0.4,0-0.8-0.2-1.2c-0.3-0.5-0.9-0.9-1.5-0.7
		c-0.2,0.1-0.4,0.3-0.5,0.6c-0.1,0.3-0.1,0.7,0.1,0.9c0.3,0.5,0.8,0.7,1.5,0.7c0.1,0,0.2,0,0.3,0c0,0,0,0.1,0,0.1
		c-0.1,0.7-0.4,1.2-0.7,1.6c-0.4,0.5-1,0.7-1.5,0.6c-0.3-0.1-0.5-0.3-0.7-0.5c-0.1-0.2-0.2-0.5-0.1-0.7c0-0.1,0-0.1-0.1-0.1
		c-0.1,0-0.1,0-0.1,0.1c-0.1,0.3-0.1,0.6,0.1,0.8c0.2,0.3,0.5,0.6,0.8,0.6c0.1,0,0.2,0,0.3,0c0.5,0,1-0.2,1.4-0.7
		c0.3-0.4,0.6-0.9,0.7-1.7c0-0.1,0-0.1,0-0.2c0.3-0.1,0.6-0.2,1-0.5c0.6-0.4,1.1-0.8,1.4-1.3C147.2,36.9,147.2,35.5,147.1,34.1z
		 M144,39.6c-0.1,0-0.2,0-0.4,0.1c-0.5,0-1-0.2-1.3-0.6c-0.1-0.2-0.2-0.5-0.1-0.8c0.1-0.2,0.2-0.4,0.4-0.5c0.1,0,0.2-0.1,0.3-0.1
		c0.4,0,0.7,0.3,0.9,0.6C144,38.8,144,39.2,144,39.6z"/>
	<path class="st1" d="M145.1,19.8C145.1,19.8,145.2,19.8,145.1,19.8c0.1,0,0.1,0,0.1,0l0.8-1.6c0-0.1,0-0.1,0-0.1
		c-0.1,0-0.1,0-0.1,0l-0.8,1.6C145.1,19.7,145.1,19.8,145.1,19.8z"/>
	<path class="st1" d="M147.1,21.9C147.1,21.9,147.1,21.9,147.1,21.9c0.1,0,0.1,0,0.2,0l1.4-1c0,0,0.1-0.1,0-0.2c0,0-0.1-0.1-0.2,0
		l-1.4,1C147,21.8,147,21.8,147.1,21.9z"/>
	<path class="st1" d="M146.8,20.4C146.8,20.4,146.9,20.4,146.8,20.4l1.2-1.4c0,0,0-0.1,0-0.2c0,0-0.1,0-0.2,0l-1.1,1.4
		C146.7,20.3,146.7,20.4,146.8,20.4C146.7,20.4,146.8,20.4,146.8,20.4z"/>
	<path class="st1" d="M140.7,12.8c0,0.2,0.1,0.4,0.4,0.5c0.2,0,0.4-0.1,0.5-0.4c0-0.2-0.1-0.4-0.4-0.5
		C141,12.4,140.8,12.6,140.7,12.8z"/>
	<path class="st1" d="M142.2,11.7c0,0.3,0.2,0.6,0.5,0.7c0.3,0,0.6-0.2,0.7-0.5c0-0.3-0.2-0.6-0.5-0.7
		C142.6,11.2,142.3,11.4,142.2,11.7z"/>
	<path class="st1" d="M144.8,11.8c0.4,0.1,0.8-0.2,0.8-0.6c0.1-0.4-0.2-0.8-0.6-0.8c-0.4-0.1-0.8,0.2-0.8,0.6
		C144.1,11.3,144.4,11.7,144.8,11.8z"/>
</g>
<g>
	<path class="st2" d="M171.2,10.7h4.5c0.1,0,0.2-0.1,0.2-0.2s-0.1-0.2-0.2-0.2h-4.5c-0.1,0-0.2,0.1-0.2,0.2S171.1,10.7,171.2,10.7z"
		/>
	<path class="st2" d="M176.6,10.7h0.4c0.1,0,0.2-0.1,0.2-0.2s-0.1-0.2-0.2-0.2h-0.4c-0.1,0-0.2,0.1-0.2,0.2S176.5,10.7,176.6,10.7z"
		/>
	<path class="st2" d="M164.6,38.4h17.6c0.1,0,0.2-0.1,0.2-0.2c0-4-2.6-7.5-6.5-8.7c0.4-0.3,0.7-0.6,1-1c0,0,0,0,0,0
		c1.2-1,2-2.6,2-4.2l0.1-3.5c0-2-1.3-3.7-3.2-4.2c0-0.1,0-0.1,0-0.1c0-1.4-1.1-2.5-2.5-2.5c-1.4,0-2.6,1.1-2.5,2.6
		c-1.9,0.5-3.2,2.2-3.2,4.2l0.1,3.5c0,1.5,0.6,2.9,1.7,3.9c0.1,0.1,0.2,0.2,0.3,0.3c0.3,0.4,0.6,0.7,1,1c-3.8,1.1-6.4,4.6-6.4,8.7
		C164.4,38.3,164.5,38.4,164.6,38.4z M171.5,29.9c1.2,0.6,2.6,0.6,3.8,0v0.4c0,1.1-0.9,1.9-1.9,1.9c-0.5,0-1-0.2-1.4-0.6
		c-0.4-0.4-0.6-0.8-0.6-1.3V29.9z M173.4,14.4c1.1,0,2.1,0.9,2.1,2.1c0,0,0,0,0,0c-0.1,0-0.1,0-0.2,0c-0.2,0-0.4,0-0.5,0h-2.7
		c-0.2,0-0.3,0-0.5,0c0,0-0.1,0-0.1,0C171.4,15.3,172.3,14.4,173.4,14.4z M168.3,24.4l-0.1-3.5c0-2,1.4-3.7,3.4-3.9
		c0.2,0,0.3,0,0.5,0h2.7c0.2,0,0.3,0,0.5,0c2,0.2,3.4,1.9,3.4,3.9l-0.1,3.5c0,0.9-0.3,1.9-0.8,2.6c0.1-0.4,0.2-0.8,0.2-1.2v-3.5
		c0-0.1,0-0.1-0.1-0.2c-1.2-0.7-1.5-2.2-1.6-2.2c0-0.1-0.1-0.1-0.2-0.2c-0.1,0-0.2,0-0.2,0.1c0,0-2.3,3.1-6.9,3.6
		c-0.1,0-0.2,0.1-0.2,0.2v2.1c0,0.4,0.1,0.8,0.2,1.2C168.5,26.2,168.3,25.3,168.3,24.4z M169.3,25.8v-1.9c3.9-0.5,6.1-2.6,6.8-3.5
		c0.2,0.5,0.6,1.4,1.5,2v3.4c0,2.3-1.9,4.1-4.1,4.1C171.1,29.9,169.3,28.1,169.3,25.8z M171.1,30v0.4c0,0.6,0.3,1.2,0.7,1.7
		c0.4,0.4,1,0.7,1.7,0.7c1.3,0,2.3-1.1,2.3-2.3V30c3.6,1,6.2,4.3,6.3,8h-17.2C164.9,34.2,167.5,31,171.1,30z"/>
	<path class="st2" d="M182.5,40.4c0-0.1-0.1-0.2-0.2-0.2h-17.6c-0.1,0-0.2,0.1-0.2,0.2c0,0.1,0.1,0.2,0.2,0.2h17.6
		C182.4,40.6,182.5,40.5,182.5,40.4z"/>
	<path class="st2" d="M171.2,25.3c-0.4,0-0.6-0.2-0.7-0.6c0,0.1,0,0.1,0,0.2c0,0.4,0.3,0.7,0.7,0.7c0.4,0,0.7-0.3,0.7-0.7
		c0-0.1,0-0.1,0-0.2C171.9,25,171.6,25.3,171.2,25.3z"/>
	<path class="st2" d="M175.7,25.6c0.4,0,0.7-0.3,0.7-0.7c0-0.1,0-0.1,0-0.2c-0.1,0.3-0.4,0.6-0.7,0.6c-0.4,0-0.6-0.2-0.7-0.6
		c0,0.1,0,0.1,0,0.2C174.9,25.3,175.2,25.6,175.7,25.6z"/>
	<path class="st2" d="M174.6,27.6c0-0.1-0.1-0.2-0.2-0.2s-0.2,0.1-0.2,0.2c0,0.4-0.3,0.7-0.7,0.7c-0.4,0-0.7-0.3-0.7-0.7
		c0-0.1-0.1-0.2-0.2-0.2c-0.1,0-0.2,0.1-0.2,0.2c0,0.6,0.5,1.1,1.1,1.1C174.1,28.8,174.6,28.2,174.6,27.6z"/>
	<path class="st2" d="M198.5,20.5c0.3-0.5,0.3-1.1-0.1-1.5c-0.5-0.5-1.2-0.5-1.7,0c-0.5,0.5-0.5,1.2,0,1.7c0.4,0.4,1,0.5,1.5,0.1
		l0.5,0.5c0.1,0.1,0.2,0.1,0.3,0c0.1-0.1,0.1-0.2,0-0.3L198.5,20.5z M197,20.3c-0.3-0.3-0.3-0.8,0-1.1c0.3-0.3,0.8-0.3,1.1,0
		c0.3,0.3,0.3,0.8,0,1.1c0,0,0,0,0,0c0,0,0,0,0,0C197.8,20.6,197.3,20.6,197,20.3z"/>
	<path class="st2" d="M200.6,18.4c0-0.5-0.4-0.9-0.9-0.9c-6.2,0-1.4,0-12.2,0v-5.4c0-1.8-1.5-3.3-3.3-3.3h-18.6l0-0.4
		c0-0.4-0.3-0.7-0.6-0.8l-0.8-0.2c-0.1-0.3-0.2-0.6-0.4-0.8l0.4-0.8c0.2-0.3,0.1-0.8-0.2-1l-0.7-0.6c-0.3-0.3-0.7-0.3-1-0.1
		l-0.8,0.4l-0.8-0.3l-0.3-0.8c-0.1-0.4-0.5-0.6-0.8-0.6l-0.9,0c-0.4,0-0.7,0.3-0.8,0.6l-0.2,0.8c-0.3,0.1-0.6,0.2-0.8,0.4L156,4.1
		c-0.3-0.2-0.8-0.1-1,0.2l-0.6,0.7c-0.3,0.3-0.3,0.7-0.1,1l0.4,0.8c-0.1,0.3-0.3,0.6-0.3,0.9l-0.8,0.3c-0.4,0.1-0.6,0.5-0.6,0.8
		l0,0.9c0,0.4,0.3,0.7,0.6,0.8l0.8,0.2c0.1,0.3,0.2,0.6,0.4,0.8l-0.4,0.8c-0.2,0.3-0.1,0.8,0.2,1l0.7,0.7c0.3,0.3,0.7,0.3,1,0.1
		l0.8-0.4c0.3,0.1,0.5,0.2,0.8,0.3l0.3,0.8c0.1,0.4,0.4,0.6,0.8,0.6c0,0,0,0,0,0l0.5,0v26.1h-2.8c-0.8,0-1.4,0.6-1.4,1.4v6.9
		c0,0.8,0.6,1.4,1.4,1.4h2.8v2.7c0,1.2,0.7,2.3,1.7,2.9h-6.6c-0.1,0-0.2,0.1-0.2,0.2c0,0.1,0.1,0.2,0.2,0.2h38.4
		c0.1,0,0.2-0.1,0.2-0.2c0-0.1-0.1-0.2-0.2-0.2h-6.9c1-0.6,1.7-1.6,1.7-2.9v-6l0.9,0c0.5,0,0.9-0.3,1-0.8l0.3-1.2
		c0.4-0.1,0.8-0.3,1.2-0.5l1.1,0.6c0.4,0.2,1,0.1,1.3-0.2l0.9-0.9c0.3-0.4,0.4-0.9,0.2-1.3l-0.6-1.1c0.2-0.3,0.3-0.6,0.4-0.9
		c0-0.1,0.1-0.2,0.1-0.3l1.2-0.4c0.5-0.1,0.8-0.6,0.8-1.1l0-1.3c0-0.5-0.3-0.9-0.8-1l-1.2-0.3c-0.1-0.4-0.3-0.8-0.5-1.2l0.6-1.1
		c0.2-0.4,0.1-1-0.2-1.3l-0.9-0.9c-0.3-0.3-0.9-0.4-1.3-0.2l-1.1,0.6l-1.2-0.5l-0.4-1.2c-0.1-0.5-0.6-0.8-1.1-0.8l-0.7,0v-8.7
		c10.8,0,6,0,12.2,0c0.5,0,0.9-0.4,0.9-0.9V18.4z M182.5,21.9c-0.2,0-0.4-0.2-0.4-0.4v-3.1c0-0.2,0.2-0.4,0.4-0.4h12.4v4
		C192.3,21.9,186.8,21.9,182.5,21.9z M161.2,51.3h2.2c0.8,0,1.4-0.6,1.4-1.4V45h13.9c0.1,0,0.2-0.1,0.2-0.2c0-0.1-0.1-0.2-0.2-0.2
		h-13.9V43c0-0.1,0-0.1,0-0.2h11.8c0.1,0,0.2-0.1,0.2-0.2c0-0.1-0.1-0.2-0.2-0.2h-11.9c-0.2-0.5-0.7-0.8-1.3-0.8h-2.2V12.1
		c0-0.8,0.7-1.5,1.5-1.5h3.7c0.1,0.8,0.8,1.5,1.7,1.5h12.1c0.9,0,1.6-0.7,1.7-1.5h2.5c0.8,0,1.5,0.7,1.5,1.5v5.4h-3.2
		c-0.5,0-0.9,0.4-0.9,0.9v3.1c0,0.5,0.4,0.9,0.9,0.9h3.2v31.7c0,0.8-0.7,1.5-1.5,1.5h-21.6c-0.8,0-1.5-0.7-1.5-1.5V51.3z M158.8,15
		c-0.2,0-0.4-0.1-0.4-0.3l-0.3-0.9c0-0.1-0.1-0.1-0.1-0.1c-0.4-0.1-0.7-0.2-1-0.4c-0.1,0-0.1,0-0.2,0l-0.9,0.5
		c-0.2,0.1-0.4,0.1-0.5-0.1l-0.7-0.6c-0.1-0.1-0.2-0.3-0.1-0.5l0.5-0.9c0-0.1,0-0.1,0-0.2c-0.2-0.3-0.3-0.6-0.4-1
		c0-0.1-0.1-0.1-0.1-0.1l-1-0.3c-0.2-0.1-0.3-0.2-0.3-0.4l0-0.9c0-0.2,0.1-0.4,0.3-0.4l1-0.3c0.1,0,0.1-0.1,0.1-0.2
		c0.1-0.3,0.2-0.6,0.4-1c0-0.1,0-0.1,0-0.2l-0.5-0.9c-0.1-0.2-0.1-0.4,0.1-0.5l0.6-0.7c0.1-0.1,0.3-0.2,0.5-0.1l0.9,0.5
		c0.1,0,0.1,0,0.2,0c0.3-0.2,0.6-0.3,1-0.4c0.1,0,0.1-0.1,0.1-0.1l0.3-1c0.1-0.2,0.2-0.3,0.4-0.3l0.9,0c0.2,0,0.4,0.1,0.4,0.3
		l0.3,0.9c0,0.1,0.1,0.1,0.1,0.1l1,0.4c0.1,0,0.1,0,0.2,0l0.9-0.5c0.2-0.1,0.4-0.1,0.5,0.1l0.7,0.6c0.1,0.1,0.2,0.3,0.1,0.5
		l-0.5,0.9c0,0.1,0,0.1,0,0.2c0.1,0.2,0.2,0.4,0.3,0.7c0,0.1,0.1,0.2,0.1,0.3c0,0.1,0.1,0.1,0.2,0.1l1,0.3c0.2,0.1,0.3,0.2,0.3,0.4
		l0,0.3h-2.6c-0.4,0-0.7,0.1-1.1,0.2c-0.1-1.3-1.1-2.3-2.4-2.2c-1.3,0-2.3,1.1-2.3,2.4c0,0.6,0.3,1.2,0.7,1.6c0.4,0.4,1,0.7,1.7,0.7
		c0.1,0,0.1,0,0.2,0c0,0.2-0.1,0.5-0.1,0.7V15L158.8,15z M159.5,11c-0.6,0.1-1.2-0.1-1.7-0.5c-0.4-0.4-0.6-0.8-0.6-1.3
		c0-1,0.8-1.9,1.9-1.9c1,0,1.9,0.8,1.9,1.9c0,0,0,0.1,0,0.1C160.4,9.6,159.8,10.2,159.5,11z M159.8,12.1c0-1.6,1.3-2.9,2.9-2.9
		c0.1,0,2.8,0,2.8,0h18.9c1.6,0,2.9,1.3,2.9,2.9v5.4h-1v-5.4c0-1-0.9-1.9-1.9-1.9h-2.7c-0.1,0-0.2,0.1-0.2,0.2
		c0,0.7-0.6,1.3-1.3,1.3H168c-0.7,0-1.3-0.6-1.3-1.3c0-0.1-0.1-0.2-0.2-0.2h-3.9c-1,0-1.9,0.9-1.9,1.9v29.4h-1V12.1z M155.5,49.9V43
		c0-0.5,0.4-1,1-1c1.4,0,7.1,0,6.9,0c0.5,0,1,0.4,1,1v6.9c0,0.5-0.4,1-1,1h-6.9C155.9,50.9,155.5,50.4,155.5,49.9z M187.5,37.1
		c0.1,0,0.1,0,0.2,0c1.4,0,2.6,1.1,2.6,2.6c0,1.4-1.1,2.6-2.6,2.7c-0.1,0-0.1,0-0.2,0V37.1z M188.2,31.5c0.3,0,0.6,0.2,0.6,0.5
		l0.4,1.3c0,0.1,0.1,0.1,0.1,0.1l1.4,0.5c0.1,0,0.1,0,0.2,0l1.2-0.7c0.3-0.1,0.6-0.1,0.8,0.1l0.9,0.9c0.2,0.2,0.3,0.5,0.1,0.8
		l-0.6,1.2c0,0.1,0,0.1,0,0.2c0.2,0.3,0.3,0.6,0.4,0.9c0,0.1,0.1,0.3,0.1,0.4c0,0.1,0.1,0.1,0.1,0.1l1.3,0.4
		c0.3,0.1,0.5,0.3,0.5,0.6l0,1.3c0,0.3-0.2,0.6-0.5,0.6l-1.3,0.4c0,0-0.1,0-0.1,0.1c0,0,0,0.1-0.1,0.1c0,0.1-0.1,0.2-0.1,0.3
		c-0.1,0.3-0.3,0.7-0.4,1c0,0.1,0,0.1,0,0.2l0.7,1.2c0.1,0.3,0.1,0.6-0.1,0.8l-0.9,0.9c-0.2,0.2-0.5,0.3-0.8,0.1l-1.2-0.6
		c-0.1,0-0.1,0-0.2,0c-0.4,0.2-0.9,0.4-1.3,0.6c-0.1,0-0.1,0.1-0.1,0.2l-0.4,1.3c-0.1,0.3-0.3,0.5-0.6,0.5l-0.9,0v-5
		c0.1,0,0.1,0,0.2,0c1.7,0,3-1.4,3-3.1c0-1.7-1.4-3-3-3c-0.1,0-0.1,0-0.2,0v-5.2L188.2,31.5z M187.1,54.1c0,1.6-1.3,2.8-2.9,2.8
		h-21.6c-1.6,0-2.9-1.3-2.9-2.8v-2.7h1v2.7c0,1,0.9,1.9,1.9,1.9h21.6c1,0,1.9-0.8,1.9-1.9V22.3h1C187.1,33.3,187.1,42.1,187.1,54.1z
		 M200.2,21.5c0,0.2-0.2,0.4-0.4,0.4h-4.5v-4h4.5c0.2,0,0.4,0.2,0.4,0.4V21.5z"/>
	<path class="st2" d="M156.6,44.2h6.7c0.1,0,0.2-0.1,0.2-0.2c0-0.1-0.1-0.2-0.2-0.2h-6.7c-0.1,0-0.2,0.1-0.2,0.2
		C156.4,44.1,156.5,44.2,156.6,44.2z"/>
	<path class="st2" d="M163.5,45.6c0-0.1-0.1-0.2-0.2-0.2h-6.7c-0.1,0-0.2,0.1-0.2,0.2c0,0.1,0.1,0.2,0.2,0.2h6.7
		C163.4,45.8,163.5,45.7,163.5,45.6z"/>
	<path class="st2" d="M161.9,47h-1.3c-0.1,0-0.2,0.1-0.2,0.2c0,0.1,0.1,0.2,0.2,0.2h1.3c0.1,0,0.2-0.1,0.2-0.2
		C162.1,47.1,162,47,161.9,47z"/>
	<path class="st2" d="M159.5,47h-2.9c-0.1,0-0.2,0.1-0.2,0.2c0,0.1,0.1,0.2,0.2,0.2h2.9c0.1,0,0.2-0.1,0.2-0.2
		C159.7,47.1,159.6,47,159.5,47z"/>
	<path class="st2" d="M159.3,48.7h-2.7c-0.1,0-0.2,0.1-0.2,0.2c0,0.1,0.1,0.2,0.2,0.2h2.7c0.1,0,0.2-0.1,0.2-0.2
		C159.5,48.8,159.4,48.7,159.3,48.7z"/>
</g>
<path class="st3" d="M95.7,22.6h-3c0,0,0,0,0,0c-0.1-0.2-0.3-0.3-0.5-0.2c-0.1,0-0.1,0.1-0.2,0.2H74.4c-1.3,0-2.4,1.1-2.4,2.4v5.7
	h-6c-0.1-0.2-0.2-0.3-0.4-0.3c-0.2,0-0.3,0.1-0.3,0.3H53.5c-0.8,0-1.4,0.6-1.4,1.4v12.5c0,0.2,0.1,0.5,0.2,0.7h-0.9
	c-0.4,0-0.8,0.2-0.9,0.5c-0.2,0.3-0.2,0.7,0.1,1l0.2,0.3c0.4,0.6,1.2,1.1,1.9,1.1h25.2h1.3h2.2h7.4h3.6v-0.8h-3.6v-5.1h7
	c1.3,0,2.4-1.1,2.4-2.4V25.1C98.1,23.7,97,22.6,95.7,22.6z M72.7,25.1c0-0.9,0.7-1.7,1.7-1.7h21.3c0.9,0,1.7,0.7,1.7,1.7v12H79.5
	v-1.4h4.3c0.1,0,0.3-0.1,0.3-0.3V25.3c0-0.1-0.1-0.3-0.3-0.3h-9.3c-0.1,0-0.3,0.1-0.3,0.3v5.4h-1.5C72.7,30.8,72.7,25.1,72.7,25.1z
	 M54.2,45.4V33.5c0-0.4,0.3-0.7,0.7-0.7h21.9c0.4,0,0.7,0.3,0.7,0.7v11.9H54.2z M78.1,30.8h-3.3v-5.2h8.8v9.6h-4.1v-3
	C79.5,31.4,78.9,30.8,78.1,30.8z M52.8,32.2c0-0.4,0.3-0.7,0.7-0.7h24.6c0.4,0,0.7,0.3,0.7,0.7v12.5c0,0.3-0.2,0.6-0.6,0.6V33.5
	c0-0.8-0.6-1.4-1.4-1.4H54.8c-0.8,0-1.4,0.6-1.4,1.4v11.8c-0.3-0.1-0.6-0.3-0.6-0.6L52.8,32.2L52.8,32.2z M77.7,47.5H52.5
	c-0.4,0-0.8-0.2-1.1-0.5c0,0,0,0-0.1-0.1c0,0-0.1-0.1-0.1-0.1l-0.2-0.3c-0.1-0.1-0.1-0.2-0.1-0.3c0,0,0.1-0.1,0.2-0.1h2.2h0.3
	c0,0,0,0,0,0c0,0,0,0,0,0h24c0,0,0,0,0,0s0,0,0,0h0.3h2.2c0.1,0,0.2,0,0.2,0.1c0,0,0,0.1-0.1,0.3l-0.2,0.3c0,0-0.1,0.1-0.1,0.1
	c0,0,0,0-0.1,0.1c-0.3,0.3-0.7,0.5-1.1,0.5H77.7z M82.1,47.5v-5h5.8v5H82.1z M81.3,47.5h-0.6c0.1-0.1,0.2-0.2,0.2-0.3l0.2-0.3
	c0.2-0.4,0.2-0.7,0.1-1c-0.2-0.3-0.5-0.5-0.9-0.5h-0.9c0.1-0.2,0.2-0.4,0.2-0.7v-2.3h1.8C81.3,42.4,81.3,47.5,81.3,47.5z M95.7,41.6
	H79.5v-3.7h17.8V40C97.3,40.9,96.6,41.6,95.7,41.6z"/>
<path class="st3" d="M58.3,16.6c-0.4-0.4-1.2-0.4-1.6,0c-0.4,0.4-0.4,1.1,0,1.6c0.2,0.2,0.5,0.3,0.8,0.3s0.6-0.1,0.8-0.3
	C58.7,17.7,58.7,17,58.3,16.6z M57.9,17.8c-0.2,0.2-0.6,0.2-0.8,0c-0.2-0.2-0.2-0.6,0-0.8c0.1-0.1,0.3-0.2,0.4-0.2
	c0.2,0,0.3,0.1,0.4,0.2C58.2,17.2,58.2,17.5,57.9,17.8z"/>
<path class="st3" d="M56.1,24.8C56.1,24.8,56.1,24.8,56.1,24.8C56.1,24.8,56.1,24.8,56.1,24.8l-1.6,1.6c-0.2,0.2-0.2,0.4,0,0.6
	l2.5,2.5c0.1,0.1,0.2,0.1,0.3,0.1c0.1,0,0.2,0,0.3-0.1l5-5l2.7,2.5l0,0c0,0.2,0.1,0.4,0.3,0.5c0,0,0,0,0.1,0c0.1,0,0.1,0,0.1,0
	l1.8,1.6c0.1,0.1,0.2,0.1,0.3,0.1c0.1,0,0.2,0,0.3-0.1l0.9-0.9c0.1-0.1,0.2-0.4,0-0.5l-2.4-2.6l0,0c0.1-0.2,0-0.4-0.2-0.5
	c-0.1,0-0.2,0-0.2,0l-1.7-1.9l5.5-5.5c0.1-0.1,0.1-0.2,0.1-0.3s0-0.2-0.1-0.3l-2.5-2.5c-0.2-0.2-0.4-0.2-0.6,0l-3.2,3.2c0,0,0,0,0,0
	s0,0,0,0l-0.8,0.8c0,0,0,0,0,0c0,0,0,0,0,0l-1.4,1.4l-0.6-0.6c0,0,0,0,0,0c0,0,0,0,0,0l-1.2-1.2c0-0.6-0.2-1.2-0.7-1.6
	c-0.8-0.8-3.9-1.4-4.3-1.4c-0.1,0-0.3,0-0.3,0.1c-0.1,0.1-0.1,0.2-0.1,0.3c0.1,0.4,0.6,3.5,1.4,4.3c0.4,0.4,1,0.7,1.6,0.7l1.2,1.2
	c0,0,0,0,0,0c0,0,0,0,0,0l0.6,0.6L56.1,24.8z M57.3,28.6l-0.4-0.4v0L55.7,27l-0.3-0.3l0.2-0.2l0.6,0.6c0.1,0.1,0.2,0.1,0.3,0.1
	s0.2,0,0.3-0.1c0.2-0.2,0.2-0.4,0-0.6l-0.6-0.6l0.2-0.2l0.6,0.6c0.1,0.1,0.2,0.1,0.3,0.1s0.2,0,0.3-0.1c0.2-0.2,0.2-0.4,0-0.6
	l-0.6-0.6l0.2-0.2l0.6,0.6c0.1,0.1,0.2,0.1,0.3,0.1s0.2,0,0.3-0.1c0.2-0.2,0.2-0.4,0-0.6l-0.6-0.6l0.2-0.2l1.5,1.5
	c0.1,0.1,0.2,0.1,0.3,0.1s0.2,0,0.3-0.1c0.2-0.2,0.2-0.4,0-0.6l-1.5-1.5l0.2-0.2l0.6,0.6c0.1,0.1,0.2,0.1,0.3,0.1
	c0.1,0,0.2,0,0.3-0.1c0.2-0.2,0.2-0.4,0-0.6l-0.6-0.6l0.2-0.2l0.6,0.6c0.1,0.1,0.2,0.1,0.3,0.1c0.1,0,0.2,0,0.3-0.1
	c0.1-0.1,0.1-0.4,0-0.5l1.4,1.3L57.3,28.6z M67.9,28.1l-8.3-7.4l0.6-0.6l0.6-0.6l7.4,8.3L67.9,28.1z M59,20.1l-0.6-0.6
	c0.3-0.1,0.5-0.3,0.8-0.5c0.2-0.2,0.4-0.5,0.5-0.8l0.6,0.6l-0.6,0.6L59,20.1z M62.6,19.5l0.6,0.6c0.1,0.1,0.2,0.1,0.3,0.1
	s0.2,0,0.3-0.1c0.2-0.2,0.2-0.4,0-0.6l-0.6-0.6l0.2-0.2l0.6,0.6c0.1,0.1,0.2,0.1,0.3,0.1s0.2,0,0.3-0.1c0.2-0.2,0.2-0.4,0-0.6
	l-0.6-0.6l0.2-0.2l1.5,1.5c0.1,0.1,0.2,0.1,0.3,0.1c0.1,0,0.2,0,0.3-0.1c0.2-0.2,0.2-0.4,0-0.6l-1.5-1.5l0.2-0.2l0.6,0.6
	c0.1,0.1,0.2,0.1,0.3,0.1s0.2,0,0.3-0.1c0.2-0.2,0.2-0.4,0-0.6l-0.6-0.6l0.2-0.2l0.6,0.6c0.1,0.1,0.2,0.1,0.3,0.1
	c0.1,0,0.2,0,0.3-0.1c0.2-0.2,0.2-0.4,0-0.6l-0.6-0.6l0.2-0.2l0.6,0.6c0.1,0.1,0.2,0.1,0.3,0.1c0.1,0,0.2,0,0.3-0.1
	c0.2-0.2,0.2-0.4,0-0.6L67,15l0.3-0.3l1.9,1.9l-5.2,5.2l-1.8-2L62.6,19.5z M55.4,15.2c1.2,0.2,2.9,0.7,3.3,1.1
	c0.6,0.6,0.6,1.6,0,2.2c-0.6,0.6-1.6,0.6-2.2,0C56.1,18.1,55.6,16.4,55.4,15.2z"/>
<circle class="st3" cx="77.7" cy="13.1" r="0.3"/>
<circle class="st3" cx="78.6" cy="13.1" r="0.3"/>
<circle class="st3" cx="79.5" cy="13.1" r="0.3"/>
<path class="st3" d="M80.9,15h-2.7c-0.1,0-0.3,0.1-0.3,0.3v3.4c0,0.1,0.1,0.3,0.3,0.3h2.7c0.1,0,0.3-0.1,0.3-0.3v-3.4
	C81.2,15.2,81.1,15,80.9,15z M80.7,18.5h-2.1v-2.9h2.1V18.5z"/>
<path class="st3" d="M85.4,15.8h-2.9c-0.1,0-0.3,0.1-0.3,0.3c0,0.1,0.1,0.3,0.3,0.3h2.9c0.1,0,0.3-0.1,0.3-0.3
	C85.6,15.9,85.5,15.8,85.4,15.8z"/>
<path class="st3" d="M85.4,16.8h-2.9c-0.1,0-0.3,0.1-0.3,0.3c0,0.1,0.1,0.3,0.3,0.3h2.9c0.1,0,0.3-0.1,0.3-0.3
	C85.6,16.9,85.5,16.8,85.4,16.8z"/>
<path class="st3" d="M85.4,17.7h-2.9c-0.1,0-0.3,0.1-0.3,0.3c0,0.1,0.1,0.3,0.3,0.3h2.9c0.1,0,0.3-0.1,0.3-0.3
	C85.6,17.8,85.5,17.7,85.4,17.7z"/>
<path class="st3" d="M56.5,34.3h-0.3c-0.2,0-0.4,0.2-0.4,0.4s0.2,0.4,0.4,0.4h0.3c0.2,0,0.4-0.2,0.4-0.4S56.7,34.3,56.5,34.3z"/>
<path class="st3" d="M69.2,34.3h-0.5c-0.2,0-0.4,0.2-0.4,0.4s0.2,0.4,0.4,0.4h0.5c0.2,0,0.4-0.2,0.4-0.4S69.4,34.3,69.2,34.3z"/>
<path class="st3" d="M62.8,34.3h-0.5c-0.2,0-0.4,0.2-0.4,0.4s0.2,0.4,0.4,0.4h0.5c0.2,0,0.4-0.2,0.4-0.4S63.1,34.3,62.8,34.3z"/>
<path class="st3" d="M66,34.3h-0.5c-0.2,0-0.4,0.2-0.4,0.4s0.2,0.4,0.4,0.4H66c0.2,0,0.4-0.2,0.4-0.4S66.2,34.3,66,34.3z"/>
<path class="st3" d="M72.4,34.3h-0.5c-0.2,0-0.4,0.2-0.4,0.4s0.2,0.4,0.4,0.4h0.5c0.2,0,0.4-0.2,0.4-0.4S72.6,34.3,72.4,34.3z"/>
<path class="st3" d="M59.7,34.3h-0.5c-0.2,0-0.4,0.2-0.4,0.4s0.2,0.4,0.4,0.4h0.5c0.2,0,0.4-0.2,0.4-0.4S59.9,34.3,59.7,34.3z"/>
<path class="st3" d="M75.3,34.3h-0.3c-0.2,0-0.4,0.2-0.4,0.4s0.2,0.4,0.4,0.4h0.3c0.2,0,0.4-0.2,0.4-0.4S75.6,34.3,75.3,34.3z"/>
<path class="st3" d="M56.5,38.7h-0.3c-0.2,0-0.4,0.2-0.4,0.4s0.2,0.4,0.4,0.4h0.3c0.2,0,0.4-0.2,0.4-0.4S56.7,38.7,56.5,38.7z"/>
<path class="st3" d="M72.4,38.7h-0.5c-0.2,0-0.4,0.2-0.4,0.4s0.2,0.4,0.4,0.4h0.5c0.2,0,0.4-0.2,0.4-0.4S72.6,38.7,72.4,38.7z"/>
<path class="st3" d="M62.8,38.7h-0.5c-0.2,0-0.4,0.2-0.4,0.4s0.2,0.4,0.4,0.4h0.5c0.2,0,0.4-0.2,0.4-0.4S63.1,38.7,62.8,38.7z"/>
<path class="st3" d="M66,38.7h-0.5c-0.2,0-0.4,0.2-0.4,0.4s0.2,0.4,0.4,0.4H66c0.2,0,0.4-0.2,0.4-0.4S66.2,38.7,66,38.7z"/>
<path class="st3" d="M59.7,38.7h-0.5c-0.2,0-0.4,0.2-0.4,0.4s0.2,0.4,0.4,0.4h0.5c0.2,0,0.4-0.2,0.4-0.4S59.9,38.7,59.7,38.7z"/>
<path class="st3" d="M69.2,38.7h-0.5c-0.2,0-0.4,0.2-0.4,0.4s0.2,0.4,0.4,0.4h0.5c0.2,0,0.4-0.2,0.4-0.4S69.4,38.7,69.2,38.7z"/>
<path class="st3" d="M75.3,38.7h-0.3c-0.2,0-0.4,0.2-0.4,0.4s0.2,0.4,0.4,0.4h0.3c0.2,0,0.4-0.2,0.4-0.4S75.6,38.7,75.3,38.7z"/>
<path class="st3" d="M56.5,43.2h-0.3c-0.2,0-0.4,0.2-0.4,0.4c0,0.2,0.2,0.4,0.4,0.4h0.3c0.2,0,0.4-0.2,0.4-0.4
	C56.9,43.4,56.7,43.2,56.5,43.2z"/>
<path class="st3" d="M59.7,43.2h-0.5c-0.2,0-0.4,0.2-0.4,0.4c0,0.2,0.2,0.4,0.4,0.4h0.5c0.2,0,0.4-0.2,0.4-0.4
	C60,43.4,59.9,43.2,59.7,43.2z"/>
<path class="st3" d="M66,43.2h-0.5c-0.2,0-0.4,0.2-0.4,0.4c0,0.2,0.2,0.4,0.4,0.4H66c0.2,0,0.4-0.2,0.4-0.4
	C66.4,43.4,66.2,43.2,66,43.2z"/>
<path class="st3" d="M72.4,43.2h-0.5c-0.2,0-0.4,0.2-0.4,0.4c0,0.2,0.2,0.4,0.4,0.4h0.5c0.2,0,0.4-0.2,0.4-0.4
	C72.8,43.4,72.6,43.2,72.4,43.2z"/>
<path class="st3" d="M62.8,43.2h-0.5c-0.2,0-0.4,0.2-0.4,0.4c0,0.2,0.2,0.4,0.4,0.4h0.5c0.2,0,0.4-0.2,0.4-0.4
	C63.2,43.4,63.1,43.2,62.8,43.2z"/>
<path class="st3" d="M69.2,43.2h-0.5c-0.2,0-0.4,0.2-0.4,0.4c0,0.2,0.2,0.4,0.4,0.4h0.5c0.2,0,0.4-0.2,0.4-0.4
	C69.6,43.4,69.4,43.2,69.2,43.2z"/>
<path class="st3" d="M75.3,43.2h-0.3c-0.2,0-0.4,0.2-0.4,0.4c0,0.2,0.2,0.4,0.4,0.4h0.3c0.2,0,0.4-0.2,0.4-0.4
	C75.7,43.4,75.6,43.2,75.3,43.2z"/>
<path class="st3" d="M85.3,29.9h10.2c0.1,0,0.3-0.1,0.3-0.3v-4.3c0-0.1-0.1-0.3-0.3-0.3H85.3c-0.1,0-0.3,0.1-0.3,0.3v4.3
	C85,29.7,85.2,29.9,85.3,29.9z M85.6,25.6h9.7v3.8h-9.7V25.6z"/>
<path class="st3" d="M85.3,35.7h10.2c0.1,0,0.3-0.1,0.3-0.3v-4.3c0-0.1-0.1-0.3-0.3-0.3H85.3c-0.1,0-0.3,0.1-0.3,0.3v4.3
	C85,35.6,85.2,35.7,85.3,35.7z M85.6,31.5h9.7v3.8h-9.7V31.5z"/>
<path class="st3" d="M69.4,19.2c-0.1,0.1-0.3,0.3-0.4,0.4c-0.1,0.2-0.1,0.4,0,0.6c0.1,0.1,0.2,0.1,0.3,0.1c0.1,0,0.2,0,0.3-0.1
	c0.1-0.1,0.2-0.2,0.4-0.4c0.2-0.2,0.2-0.4,0-0.6C69.9,19,69.6,19,69.4,19.2z"/>
<path class="st3" d="M68,20.8c-0.1,0.1-0.2,0.3-0.3,0.4c-0.1,0.2-0.1,0.4,0.1,0.5c0.1,0,0.1,0.1,0.2,0.1c0.1,0,0.2-0.1,0.3-0.2
	c0.1-0.1,0.2-0.3,0.3-0.4c0.1-0.2,0.1-0.4-0.1-0.5C68.4,20.6,68.2,20.6,68,20.8z"/>
<path class="st3" d="M66.9,22.6c-0.1,0.2-0.2,0.3-0.2,0.5c-0.1,0.2,0,0.4,0.2,0.5c0.1,0,0.1,0,0.2,0c0.1,0,0.3-0.1,0.4-0.2
	c0.1-0.2,0.2-0.3,0.2-0.4c0.1-0.2,0-0.4-0.2-0.5C67.2,22.3,67,22.4,66.9,22.6z"/>
<path class="st3" d="M74.5,16.7c0,0,0.1,0,0.1,0c0.2-0.1,0.3-0.1,0.5-0.2c0.2-0.1,0.3-0.3,0.2-0.5c-0.1-0.2-0.3-0.3-0.5-0.2
	c-0.2,0.1-0.3,0.1-0.5,0.2c-0.2,0.1-0.3,0.3-0.2,0.5C74.2,16.6,74.3,16.7,74.5,16.7z"/>
<path class="st3" d="M72.6,17.6c0.1,0,0.1,0,0.2-0.1c0.1-0.1,0.3-0.2,0.4-0.2c0.2-0.1,0.3-0.3,0.2-0.5c-0.1-0.2-0.3-0.3-0.5-0.2
	c-0.2,0.1-0.3,0.2-0.5,0.3c-0.2,0.1-0.3,0.3-0.1,0.5C72.3,17.6,72.5,17.6,72.6,17.6z"/>
<path class="st3" d="M70.9,18.8c0.1,0,0.2,0,0.2-0.1c0.1-0.1,0.3-0.2,0.4-0.3c0.2-0.1,0.2-0.4,0.1-0.5c-0.1-0.2-0.4-0.2-0.5-0.1
	c-0.1,0.1-0.3,0.2-0.4,0.3c-0.2,0.1-0.2,0.4-0.1,0.6C70.7,18.7,70.8,18.8,70.9,18.8z"/>
<path class="st3" d="M76.3,16.1V19c0,0.8,0.6,1.4,1.4,1.4h8.1c0.8,0,1.4-0.6,1.4-1.4v-1.1c0.1,0,0.3-0.1,0.3-0.2
	c0.1-0.2,0.1-0.4-0.1-0.5L87.3,17v-3.9c0-0.8-0.6-1.4-1.4-1.4h-8.1c-0.8,0-1.4,0.6-1.4,1.4v2.2c-0.2,0.1-0.3,0.3-0.2,0.5
	C76.1,15.9,76.2,16,76.3,16.1z M85.9,19.6h-8.1c-0.3,0-0.6-0.3-0.6-0.6v-4.7h9.4V19C86.5,19.3,86.2,19.6,85.9,19.6z M77.8,12.5h8.1
	c0.3,0,0.6,0.3,0.6,0.6v0.4h-9.4v-0.4C77.1,12.8,77.4,12.5,77.8,12.5z"/>
<path class="st3" d="M65.1,28.6c0,0.2,0,0.4,0,0.6c0,0.2,0.2,0.4,0.4,0.4c0,0,0,0,0,0c0.2,0,0.4-0.2,0.4-0.4c0-0.2,0-0.4,0-0.5
	c0-0.2-0.2-0.4-0.4-0.4C65.3,28.2,65.1,28.4,65.1,28.6z"/>
<path class="st3" d="M91,20.8c-0.2,0.1-0.2,0.4-0.1,0.5c0.1,0.1,0.2,0.3,0.3,0.4c0.1,0.1,0.2,0.2,0.3,0.2c0.1,0,0.2,0,0.2-0.1
	c0.2-0.1,0.2-0.4,0.1-0.5c-0.1-0.1-0.2-0.3-0.3-0.4C91.4,20.7,91.2,20.7,91,20.8z"/>
<path class="st3" d="M90,20.3c0.1,0.1,0.2,0.1,0.3,0.1c0.1,0,0.2,0,0.3-0.1c0.2-0.1,0.2-0.4,0-0.6c-0.1-0.1-0.2-0.2-0.3-0.4
	c-0.2-0.2-0.4-0.2-0.6,0c-0.2,0.2-0.2,0.4,0,0.6C89.8,20,89.9,20.1,90,20.3z"/>
<path class="st3" d="M88.6,18.9c0.1,0.1,0.2,0.1,0.3,0.1c0.1,0,0.2,0,0.3-0.1c0.1-0.2,0.1-0.4-0.1-0.6c-0.1-0.1-0.3-0.2-0.4-0.3
	c-0.2-0.1-0.4-0.1-0.6,0.1c-0.1,0.2-0.1,0.4,0.1,0.6C88.4,18.7,88.5,18.8,88.6,18.9z"/>
<rect x="6.7" y="-39.9" class="st4" width="20.3" height="13.8"/>
<rect x="30.4" y="-40.1" class="st3" width="20.3" height="13.8"/>
<rect x="54.1" y="-40.1" class="st1" width="20.3" height="13.8"/>
<rect x="78.9" y="-40.1" class="st2" width="20.3" height="13.8"/>
<rect x="103.4" y="-40.1" class="st5" width="20.3" height="13.8"/>
<g transform="translate(0,-952.36218)">
	<path class="st3" d="M10.5,1019.3c-0.6,0-1.1,0.5-1.2,1.1c-0.4,2-1.6,3.6-2.8,5.3c-1.2,1.7-2.6,3.7-2.7,6.5c-0.1,2,0.7,4.4,2,6.5
		c0,10.8,0.5,20.5,1.2,27.6c0.4,3.6,0.8,6.5,1.3,8.6c0.3,1.1,0.5,1.9,0.9,2.6c0.2,0.3,0.4,0.7,0.7,1c0.3,0.3,0.8,0.6,1.4,0.6
		c0.6,0,1.1-0.3,1.4-0.6c0.3-0.3,0.5-0.6,0.7-1c0.3-0.7,0.6-1.5,0.9-2.6c0.5-2.1,0.9-5,1.3-8.6c0.7-7.1,1.2-16.8,1.2-27.5
		c1.6-2.1,2.7-4.6,2.7-7.3c-0.1-4.6-3.2-9.2-8.1-12C11,1019.3,10.7,1019.2,10.5,1019.3z M29.4,1019.3c-2.1,0-3.8,1.7-3.8,3.8v52.1
		c0,2.1,1.7,3.9,3.8,3.9h10c2.1,0,3.8-1.8,3.8-3.9v-52.1c0-2.1-1.7-3.8-3.8-3.8H29.4z M29.4,1022h10c0.7,0,1.1,0.5,1.1,1.1v52.1
		c0,0.7-0.5,1.1-1.1,1.1h-10c-0.7,0-1.1-0.5-1.1-1.1v-4.3h3.4c0.8,0,1.4-0.6,1.4-1.3c0-0.8-0.6-1.4-1.3-1.4c0,0,0,0,0,0h-3.4v-4.1h2
		c0.8,0,1.4-0.6,1.4-1.3c0-0.8-0.6-1.4-1.3-1.4c0,0,0,0,0,0h-2v-4.1h3.4c0.8,0,1.4-0.6,1.4-1.3c0-0.8-0.6-1.4-1.3-1.4c0,0,0,0,0,0
		h-3.4v-4.1h2c0.8,0,1.4-0.6,1.4-1.3c0-0.8-0.6-1.4-1.3-1.4c0,0,0,0,0,0h-2v-4.1h3.4c0.8,0,1.4-0.6,1.4-1.3c0-0.8-0.6-1.4-1.3-1.4
		c0,0,0,0,0,0h-3.4v-4.1h2c0.8,0,1.4-0.6,1.4-1.3c0-0.8-0.6-1.4-1.3-1.4c0,0,0,0,0,0h-2v-4.1h3.4c0.8,0,1.4-0.6,1.4-1.3
		c0-0.8-0.6-1.4-1.3-1.4c0,0,0,0,0,0h-3.4v-4.3C28.2,1022.5,28.7,1022,29.4,1022z M11.3,1022.8c3.3,2.4,5.3,5.7,5.4,8.7
		c0,1.9-0.8,3.7-2,5.4H7.9c-1-1.7-1.5-3.7-1.4-4.7c0-1.9,0.9-3.3,2.1-5C9.5,1026,10.6,1024.6,11.3,1022.8z M8.6,1039.6H14
		c0,1.1,0,2.3,0,3.4H8.6C8.6,1041.9,8.6,1040.8,8.6,1039.6z M8.6,1045.8h5.2c-0.2,7.8-0.5,14.8-1.1,20.2c-0.4,3.5-0.8,6.4-1.3,8.3
		c-0.1,0.4-0.2,0.5-0.3,0.8c-0.1-0.3-0.2-0.4-0.3-0.8c-0.5-1.9-0.9-4.7-1.3-8.3C9.2,1060.6,8.8,1053.6,8.6,1045.8z"/>
</g>
<g>
	<path class="st6" d="M72.7,72.8c-0.4,0-0.8,0.4-0.8,0.8v3.3c-2.3,0.5-4.5,1.4-6.5,2.7l-2.3-2.3c-0.3-0.3-0.8-0.3-1.1,0l-5.2,5.2
		c-0.3,0.3-0.3,0.8,0,1.1c0,0,0,0,0,0l2.3,2.3c-1.3,2-2.2,4.2-2.7,6.5h-3.3c-0.4,0-0.8,0.4-0.8,0.8v7.3c0,0.4,0.4,0.8,0.8,0.8h3.3
		c0.5,2.3,1.4,4.5,2.7,6.5l-2.3,2.3c-0.3,0.3-0.3,0.8,0,1.1l5.2,5.2c0.3,0.3,0.8,0.3,1.1,0l2.3-2.3c2,1.3,4.2,2.2,6.5,2.7v3.3
		c0,0.4,0.4,0.8,0.8,0.8H80c0.4,0,0.8-0.4,0.8-0.8v-3.3c2.3-0.5,4.5-1.4,6.5-2.7l2.3,2.3c0.3,0.3,0.8,0.3,1.1,0l5.2-5.2
		c0.3-0.3,0.3-0.8,0-1.1l-2.3-2.3c1.3-2,2.2-4.2,2.7-6.5h3.3c0.4,0,0.8-0.4,0.8-0.8v-7.3c0-0.4-0.4-0.8-0.8-0.8h-3.3
		c-0.5-2.3-1.4-4.5-2.7-6.5l2.3-2.3c0.3-0.3,0.3-0.8,0-1.1c0,0,0,0,0,0l-5.2-5.2c-0.3-0.3-0.8-0.3-1.1,0l-2.3,2.3
		c-2-1.3-4.2-2.2-6.5-2.7v-3.3c0-0.4-0.4-0.8-0.8-0.8H72.7z M73.5,74.4h5.7v3.1c0,0.4,0.3,0.7,0.6,0.8c2.5,0.5,5,1.5,7.1,2.9
		c0.3,0.2,0.7,0.2,1-0.1l2.2-2.2l4.1,4.1L92,85.2c-0.3,0.3-0.3,0.7-0.1,1c1.5,2.1,2.5,4.5,2.9,7.1c0.1,0.4,0.4,0.6,0.8,0.6h3.1v5.7
		h-3.1c-0.4,0-0.7,0.3-0.8,0.6c-0.5,2.5-1.5,5-2.9,7.1c-0.2,0.3-0.2,0.7,0.1,1l2.2,2.2l-4.1,4.1l-2.2-2.2c-0.3-0.3-0.7-0.3-1-0.1
		c-2.1,1.5-4.6,2.4-7.1,2.9c-0.4,0.1-0.6,0.4-0.6,0.8v3.1h-5.7V116c0-0.4-0.3-0.7-0.6-0.8c-2.5-0.5-5-1.5-7.1-2.9
		c-0.3-0.2-0.7-0.2-1,0.1l-2.2,2.2l-4.1-4.1l2.2-2.2c0.3-0.3,0.3-0.7,0.1-1c-1.5-2.1-2.4-4.6-2.9-7.1c-0.1-0.4-0.4-0.6-0.8-0.6H54
		v-5.7h3.1c0.4,0,0.7-0.3,0.8-0.6c0.5-2.5,1.5-5,2.9-7.1c0.2-0.3,0.2-0.7-0.1-1L58.5,83l4.1-4.1l2.2,2.2c0.3,0.3,0.7,0.3,1,0.1
		c2.1-1.4,4.6-2.4,7.1-2.9c0.4-0.1,0.6-0.4,0.6-0.8L73.5,74.4z M76.3,82.6c-3.8,0-7.3,1.5-10,4.1c-2.7,2.7-4.1,6.2-4.1,10
		c0,3.8,1.5,7.3,4.1,10c2.7,2.7,6.3,4.1,10,4.1c3.8,0,7.3-1.5,10-4.1c2.7-2.7,4.1-6.2,4.1-10c0-3.8-1.5-7.3-4.1-10
		C83.7,84.1,80.1,82.6,76.3,82.6z M76.3,84.2c3.3,0,6.5,1.3,8.9,3.7c2.4,2.4,3.7,5.6,3.7,8.9c0,3.3-1.3,6.5-3.7,8.9
		c-2.4,2.4-5.6,3.7-8.9,3.7c-3.3,0-6.5-1.3-8.9-3.7c-2.4-2.4-3.7-5.6-3.7-8.9c0-3.3,1.3-6.5,3.7-8.9C69.8,85.5,73,84.2,76.3,84.2z
		 M77.6,91.1c0,0-0.1,0-0.1,0c-0.3,0-0.6,0.3-0.7,0.6l-2.5,9.9c-0.1,0.4,0.1,0.9,0.6,1c0.4,0.1,0.9-0.1,1-0.6c0,0,0,0,0,0l2.5-9.9
		c0.1-0.4-0.1-0.9-0.6-1c0,0,0,0,0,0C77.7,91.1,77.7,91,77.6,91.1L77.6,91.1z M72.3,92.1c-0.2,0-0.3,0.1-0.5,0.2l-4.6,3.9
		c-0.3,0.3-0.4,0.8-0.1,1.1c0,0,0.1,0.1,0.1,0.1l4.6,3.9c0.3,0.3,0.8,0.2,1.1-0.1c0,0,0,0,0,0c0.3-0.3,0.2-0.8-0.1-1.1c0,0,0,0,0,0
		l-3.9-3.3l3.9-3.3c0.3-0.3,0.4-0.8,0.1-1.1c0,0,0,0,0,0c-0.1-0.2-0.3-0.3-0.5-0.3C72.3,92.1,72.3,92.1,72.3,92.1L72.3,92.1z
		 M80.4,92.1c0,0-0.1,0-0.1,0c-0.2,0-0.4,0.1-0.5,0.3c-0.3,0.3-0.2,0.8,0.1,1.1c0,0,0,0,0,0l3.9,3.3l-3.9,3.3
		c-0.3,0.3-0.4,0.8-0.1,1.1c0,0,0,0,0,0c0.3,0.3,0.8,0.4,1.1,0.1c0,0,0,0,0,0l4.6-3.9c0.3-0.3,0.4-0.8,0.1-1.1c0,0-0.1-0.1-0.1-0.1
		l-4.6-3.9C80.8,92.2,80.6,92.1,80.4,92.1L80.4,92.1z"/>
</g>
<g>
	<path class="st4" d="M152.1,84l-22.9-15.1c-0.3-0.2-0.7-0.2-1,0L105.3,84c-0.4,0.3-0.5,0.8-0.3,1.3c0.1,0.1,0.2,0.2,0.3,0.3
		l22.9,15.1c0.3,0.2,0.7,0.2,1,0l22.9-15.1c0.4-0.3,0.5-0.8,0.3-1.3C152.3,84.1,152.2,84.1,152.1,84z M128.7,98.8l-21.2-14l21.2-14
		l21.2,14L128.7,98.8z"/>
	<path class="st4" d="M152.1,96.2l-5.6-3.7c-0.4-0.3-1-0.2-1.3,0.3c-0.3,0.4-0.2,1,0.3,1.3l4.5,2.9l-21.2,14l-21.2-14l4.7-3.1
		c0.4-0.3,0.5-0.8,0.3-1.3c-0.3-0.4-0.8-0.5-1.3-0.3l-5.8,3.8c-0.4,0.3-0.5,0.8-0.3,1.3c0.1,0.1,0.2,0.2,0.3,0.3l22.9,15.1
		c0.3,0.2,0.7,0.2,1,0l22.9-15.1c0.4-0.3,0.5-0.8,0.3-1.3C152.3,96.4,152.2,96.3,152.1,96.2z"/>
	<path class="st4" d="M152.5,109.9c0-0.3-0.2-0.6-0.4-0.8l-5.6-3.7c-0.4-0.3-1-0.2-1.3,0.3c-0.3,0.4-0.2,1,0.3,1.3l4.5,2.9l-21.2,14
		l-21.2-14l4.7-3.1c0.4-0.3,0.5-0.8,0.3-1.3c-0.3-0.4-0.8-0.5-1.3-0.3l-5.8,3.8c-0.4,0.3-0.5,0.8-0.3,1.3c0.1,0.1,0.2,0.2,0.3,0.3
		l22.9,15.1c0.3,0.2,0.7,0.2,1,0l22.9-15.1C152.4,110.5,152.5,110.2,152.5,109.9z"/>
</g>
</svg>
