<?xml version="1.0" encoding="UTF-8"?>
<svg id="Layer_1" data-name="Layer 1" xmlns="http://www.w3.org/2000/svg" viewBox="0 0 48 60">
  <defs>
    <style>
      .cls-1b {
        fill: #ff8303;
      }
    </style>
  </defs>
  <path class="cls-1b" d="M47.407767,16.68437L24.504103,1.586281c-.305715-.201997-.702489-.201997-1.008204,0L.592234,16.68437c-.422056,.278702-.538267,.846779-.259564,1.268835,.068116,.103154,.156412,.191448,.259564,.259565l22.903661,15.097197c.305893,.201402,.702311,.201402,1.008204,0l22.903668-15.097201c.422056-.278705,.538264-.846782,.259558-1.268838-.068117-.10315-.156408-.191441-.259558-.259558Zm-23.407768,14.765611L2.759733,17.448566,23.999999,3.446276l21.240265,14.002291-21.240265,14.001414Z"/>
  <path class="cls-1b" d="M47.407767,28.934813l-5.613072-3.700365c-.422579-.277616-.990199-.160099-1.267815,.262481-.276876,.421455-.1608,.987455,.259607,1.265916l4.453812,2.93613-21.2403,14.001432L2.759733,29.69901l4.671009-3.079149c.421459-.279313,.536689-.8474,.257376-1.268859-.278464-.420181-.844211-.5362-1.265582-.259538L.592234,28.934813c-.422056,.278705-.538264,.846782-.25956,1.268838,.068116,.10315,.15641,.191441,.25956,.259558l22.903661,15.097218c.305893,.201406,.702311,.201406,1.008204,0l22.903668-15.097218c.422056-.278702,.538264-.846779,.259565-1.268835-.068117-.103154-.156415-.191448-.259565-.259562Z"/>
  <path class="cls-1b" d="M47.818902,42.551876c.000035-.307639-.154418-.594734-.411149-.764235l-5.613072-3.69945c-.422579-.277616-.990199-.160099-1.267815,.262481-.276876,.421455-.1608,.987455,.259607,1.265916l4.453812,2.935215-21.240286,14.002367L2.759733,42.551876l4.671009-3.079149c.421724-.278908,.537503-.846887,.258591-1.268611-.27844-.421019-.845119-.53723-1.266797-.259789l-5.830302,3.843349c-.422056,.278705-.538264,.846782-.25956,1.268838,.068116,.10315,.15641,.191441,.25956,.259558l22.903661,15.098091c.305893,.201406,.702311,.201406,1.008204,0l22.903668-15.098091c.256549-.169648,.410946-.456628,.411135-.764197Z"/>
</svg>